<?xml version="1.0" encoding="utf-8"?>
<!-- Generator: Adobe Illustrator 21.1.0, SVG Export Plug-In . SVG Version: 6.00 Build 0)  -->
<svg version="1.1" id="レイヤー_1" xmlns="http://www.w3.org/2000/svg" xmlns:xlink="http://www.w3.org/1999/xlink" x="0px"
	 y="0px" viewBox="0 0 45.4 128" style="enable-background:new 0 0 45.4 128;" xml:space="preserve">
<style type="text/css">
	.st0{fill:#999999;}
</style>
<circle class="st0" cx="22.9" cy="12.1" r="12.1"/>
<path class="st0" d="M33.4,29.8H22.8H12.2C6.4,29.8,0,36.2,0,42v40.5c0,2.9,2.4,5.3,5.3,5.3c1.4,0,0,0,3.7,0l2,34.6
	c0,3.1,2.5,5.6,5.6,5.6c1.3,0,3.7,0,6.1,0s4.8,0,6.1,0c3.1,0,5.6-2.5,5.6-5.6l2-34.6c3.7,0,2.3,0,3.7,0c2.9,0,5.3-2.4,5.3-5.3V42
	C45.6,36.2,39.2,29.8,33.4,29.8z"/>
</svg>
