<svg id="レイヤー_1" data-name="レイヤー 1" xmlns="http://www.w3.org/2000/svg" viewBox="0 0 688.37 463.33"><defs><style>.cls-1{fill:#fff;}</style></defs><title>アートボード 1</title><path class="cls-1" d="M222.09,12.28l-63.61,214V347.7H77.69V226.3l-61.33-214H96.49q18.78,98.21,21.18,132.18Q124.92,90.78,142,12.28Z"/><path class="cls-1" d="M440.67,158.34H353.45V100q0-25.42-2.79-31.73T338.32,62q-10.78,0-13.67,7.67t-2.9,33.15v155.8q0,24.45,2.9,31.9T337.7,298q9.74,0,12.74-7.48t3-35.1V213.24h87.23v13.07q0,52.08-7.36,73.86t-32.53,38.18q-25.17,16.39-62.05,16.39-38.33,0-63.19-13.88T242.6,302.44q-8.08-24.55-8.08-73.86v-98q0-36.25,2.49-54.39t14.81-34.91Q264.15,24.5,286,14.87t50.24-9.63q38.54,0,63.61,14.9T432.8,57.27q7.87,22.24,7.87,69.21Z"/><path class="cls-1" d="M656.76,113.8h-81V88.93q0-17.4-3.11-22.17T562.29,62a13.18,13.18,0,0,0-11.91,6.43q-4,6.43-4,19.49,0,16.79,4.54,25.29,4.34,8.5,24.65,20.51,58.24,34.57,73.36,56.74T664,261.93q0,35.85-8.39,52.83T623.2,343.25q-24,11.5-55.94,11.5-35,0-59.77-13.26t-32.42-33.77q-7.67-20.51-7.67-58.22v-22h81v40.82q0,18.85,3.42,24.24T563.94,298q8.7,0,12.95-6.84t4.25-20.31q0-29.63-8.08-38.74-8.29-9.12-40.82-30.46-32.53-21.55-43.09-31.29t-17.51-26.93q-6.94-17.19-6.94-43.92,0-38.54,9.84-56.35t31.8-27.87q22-10,53-10,34,0,57.91,11T649,43.87q7.77,16.68,7.77,56.67Z"/><path class="cls-1" d="M48.82,390.42H72.18v2.7H69.59a11,11,0,0,0-4.2.5,1.55,1.55,0,0,0-1,1.41,3,3,0,0,0,.5,1.69l13.53,21,9.74-17.91a5.33,5.33,0,0,0,.65-2.59,3.85,3.85,0,0,0-1.23-3,5,5,0,0,0-3.5-1.12H81.62v-2.7h20.33v2.7a10.52,10.52,0,0,0-5.49,1.23A12.07,12.07,0,0,0,92.58,399L80.25,421.49v16.87a2.25,2.25,0,0,0,.76,1.91,5.27,5.27,0,0,0,3.1.76h4.58v2.7H64.21V441H69a4.48,4.48,0,0,0,2.81-.7,2.39,2.39,0,0,0,.86-2V422L56.18,396.18a6.17,6.17,0,0,0-2.52-2.33,13.22,13.22,0,0,0-4.83-.74Z"/><path class="cls-1" d="M129.66,440l1.3,2a8,8,0,0,1-5.84,2.7A6.43,6.43,0,0,1,121,443.4a10.75,10.75,0,0,1-2.94-4.69,21.66,21.66,0,0,1-6,4.81,14.67,14.67,0,0,1-6.23,1.21q-5.19,0-7.89-2.23a7.1,7.1,0,0,1-2.7-5.73q0-5.26,6.18-8.74t16.45-4.63v-5.12a6,6,0,0,0-2.2-4.69,8.12,8.12,0,0,0-5.59-1.95,10.72,10.72,0,0,0-5.41,1.3q-1.62,1-1.62,1.91a3.53,3.53,0,0,0,.86,1.69,4.55,4.55,0,0,1,1,2.56,3.54,3.54,0,0,1-1,2.65,3.73,3.73,0,0,1-2.74,1,4.06,4.06,0,0,1-3-1.23,4.28,4.28,0,0,1-1.21-3.14q0-3.57,4-6.52t10.54-3q6,0,9.19,2.59a8,8,0,0,1,3.17,6.38v18.45a6.47,6.47,0,0,0,.79,3.6,2.38,2.38,0,0,0,2.05,1.19A5,5,0,0,0,129.66,440Zm-11.82-14.24q-9.16,1.26-13,4.11A7.24,7.24,0,0,0,102,436a6.07,6.07,0,0,0,1.48,4.34,5.05,5.05,0,0,0,3.86,1.57,9.91,9.91,0,0,0,7.37-3.23,11.17,11.17,0,0,0,3.12-8.09Z"/><path class="cls-1" d="M144,389.81v25.12a15.05,15.05,0,0,1,4.72-4.49,11.2,11.2,0,0,1,5.66-1.49,12.92,12.92,0,0,1,10.06,4.65q4.11,4.65,4.11,12.25,0,8.25-4.41,13.32a13.94,13.94,0,0,1-10.94,5.06,12.73,12.73,0,0,1-5.62-1.22,18,18,0,0,1-5.19-4.14,37.58,37.58,0,0,1-4,5.37l-1.44-.5a36.47,36.47,0,0,0,1-8.65V396.91a3.38,3.38,0,0,0-1.24-2.78,5.45,5.45,0,0,0-3.52-1h-1.51v-2.7Zm9.08,22.35a7.84,7.84,0,0,0-6.63,3.55q-2.56,3.55-2.56,11.72,0,7.78,2.52,11.12a7.88,7.88,0,0,0,6.6,3.35,6.83,6.83,0,0,0,5.91-3.31q2.81-4.18,2.81-11.91t-2.47-11.07A7.37,7.37,0,0,0,153.09,412.15Z"/><path class="cls-1" d="M208.81,440l1.3,2a8,8,0,0,1-5.84,2.7,6.43,6.43,0,0,1-4.13-1.33,10.75,10.75,0,0,1-2.94-4.69,21.66,21.66,0,0,1-6,4.81,14.67,14.67,0,0,1-6.23,1.21q-5.19,0-7.89-2.23a7.1,7.1,0,0,1-2.7-5.73q0-5.26,6.18-8.74T197,423.4v-5.12a6,6,0,0,0-2.2-4.69,8.12,8.12,0,0,0-5.59-1.95,10.72,10.72,0,0,0-5.41,1.3q-1.62,1-1.62,1.91a3.53,3.53,0,0,0,.86,1.69,4.55,4.55,0,0,1,1,2.56,3.54,3.54,0,0,1-1,2.65,3.73,3.73,0,0,1-2.74,1,4.06,4.06,0,0,1-3-1.23,4.28,4.28,0,0,1-1.21-3.14q0-3.57,4-6.52t10.54-3q6,0,9.19,2.59a8,8,0,0,1,3.17,6.38v18.45a6.47,6.47,0,0,0,.79,3.6,2.38,2.38,0,0,0,2.05,1.19A5,5,0,0,0,208.81,440ZM197,425.77q-9.16,1.26-13,4.11a7.24,7.24,0,0,0-2.85,6.13,6.07,6.07,0,0,0,1.48,4.34,5.05,5.05,0,0,0,3.86,1.57,9.91,9.91,0,0,0,7.37-3.23A11.17,11.17,0,0,0,197,430.6Z"/><path class="cls-1" d="M272,394.56l2.49-5.15h2.27l.94,21.44h-2.41q-2.38-9-6-13.33-4.47-5.37-10.67-5.37-6.7,0-10.92,6t-4.22,20.25q0,12,4.83,18.31,4.11,5.33,11.53,5.33a15.23,15.23,0,0,0,10.88-4.16q4.4-4.17,5.73-12.56h2.56q-1.12,9.51-6.52,14.63a19,19,0,0,1-13.62,5.12,23.27,23.27,0,0,1-12.23-3.35,24.13,24.13,0,0,1-8.9-9.64,29,29,0,0,1-3.33-13.78,33.4,33.4,0,0,1,3.44-15,25.69,25.69,0,0,1,8.81-10.5,20.72,20.72,0,0,1,11.57-3.52,19.32,19.32,0,0,1,6.7,1.19A28.11,28.11,0,0,1,272,394.56Z"/><path class="cls-1" d="M303.92,408.94a15.08,15.08,0,0,1,11.44,4.92q4.63,4.92,4.63,13a20,20,0,0,1-2.07,9.46,15.5,15.5,0,0,1-5.91,6.18,16,16,0,0,1-8.27,2.27,14.51,14.51,0,0,1-11.12-5q-4.56-5-4.56-12.9t4.58-12.94A14.73,14.73,0,0,1,303.92,408.94Zm0,2.56a7.83,7.83,0,0,0-6.63,3.66q-2.59,3.66-2.59,11.55t2.58,11.75a7.8,7.8,0,0,0,6.65,3.71,8,8,0,0,0,6.83-3.71q2.61-3.71,2.61-12.15,0-7.82-2.58-11.32A8.12,8.12,0,0,0,303.92,411.5Z"/><path class="cls-1" d="M327.2,410l13.44-.4v29a2.16,2.16,0,0,0,.58,1.69,3.07,3.07,0,0,0,2.09.72h3.82v2.7H327.92V441h3.57a3.08,3.08,0,0,0,2.32-.77,3.14,3.14,0,0,0,.74-2.25V416.73a3.87,3.87,0,0,0-1.15-3,5,5,0,0,0-3.42-1H327.2Zm9.37-20.15a3.91,3.91,0,0,1,2.85,1.23,4,4,0,0,1,1.23,2.88,3.84,3.84,0,0,1-1.19,2.81,4,4,0,1,1-2.88-6.92Z"/><path class="cls-1" d="M354,410l11.21-.68a55.75,55.75,0,0,1,1,7.42,16.07,16.07,0,0,1,5.35-5.51,13.36,13.36,0,0,1,7-1.84,11.08,11.08,0,0,1,5.62,1.31,9.27,9.27,0,0,1,3.64,4.16,14.51,14.51,0,0,1,1.37,6.38v16.43a3.46,3.46,0,0,0,.83,2.61,4,4,0,0,0,2.78.77h2.38v2.7H377.4V441h1.69a5.42,5.42,0,0,0,3.32-.76,2.74,2.74,0,0,0,.94-2.27V423.54q0-4.72-1.44-7a6.73,6.73,0,0,0-6.13-3.24,8.47,8.47,0,0,0-6.79,3.28,12.93,12.93,0,0,0-2.72,8.54v12.51a3.41,3.41,0,0,0,.85,2.61,4.09,4.09,0,0,0,2.79.77h2.34v2.7H354.37V441h2.34a4.29,4.29,0,0,0,2.69-.72,2.21,2.21,0,0,0,.92-1.8v-21.8a4.32,4.32,0,0,0-1.17-3.28,4.7,4.7,0,0,0-3.37-1.12H354Z"/><path class="cls-1" d="M452.83,394.45l3.24-4.65h2.63l.22,19.43h-2.38q-2.24-8.94-6.61-13a14.29,14.29,0,0,0-10.07-4.11,10.9,10.9,0,0,0-7.78,2.85,9.2,9.2,0,0,0-3,7,8.6,8.6,0,0,0,1.15,4.49,8.52,8.52,0,0,0,3.44,3.14,38.39,38.39,0,0,0,8.63,2.57q8.9,1.94,12.49,3.92a12.87,12.87,0,0,1,7.12,12A16,16,0,0,1,457,440a17.16,17.16,0,0,1-12.53,4.74,21.08,21.08,0,0,1-14.34-5.33l-4.07,5H423.5V423.72h2.59q1.51,8.54,6.78,13.48a16.89,16.89,0,0,0,11.86,4.94,12.23,12.23,0,0,0,8.7-3.15,10.1,10.1,0,0,0,3.37-7.66,8,8,0,0,0-1.26-4.49,9.54,9.54,0,0,0-4-3.24,61.67,61.67,0,0,0-10.78-3.19q-8.83-2.09-12-4.69-4.51-3.68-4.51-10.42a15.36,15.36,0,0,1,16-16,17.29,17.29,0,0,1,6.38,1.19A22.5,22.5,0,0,1,452.83,394.45Z"/><path class="cls-1" d="M465.38,410h16.18v2.45H480a5.32,5.32,0,0,0-2.9.56,1.86,1.86,0,0,0-.77,1.6,2.22,2.22,0,0,0,.22.94L486,435.79,493,419a9.08,9.08,0,0,0,.76-3.53,2.39,2.39,0,0,0-1-2.07,9.07,9.07,0,0,0-4.18-1V410h14.06v2.45q-4.07.4-5.48,3.64L484.6,445.11q-3.19,7.41-6.39,10.18a10.45,10.45,0,0,1-7,2.81,6.24,6.24,0,0,1-4.34-1.48,4.71,4.71,0,0,1-1.64-3.64,3.69,3.69,0,0,1,1-2.67,3.36,3.36,0,0,1,2.52-1,3.2,3.2,0,0,1,2.31.9,2.89,2.89,0,0,1,.94,2.16,5.62,5.62,0,0,1-.14,1.08,3.52,3.52,0,0,0-.14.79q0,.86,1.12.86a5.49,5.49,0,0,0,2.68-.86,8.84,8.84,0,0,0,2.79-2.78A90.48,90.48,0,0,0,482.9,443L470.08,415.5a5.24,5.24,0,0,0-1.71-2.14,6.87,6.87,0,0,0-3-1Z"/><path class="cls-1" d="M508.37,431q2.24,6.24,5.13,8.63a10.86,10.86,0,0,0,7.16,2.4,9.36,9.36,0,0,0,6-1.71,5.36,5.36,0,0,0,2.11-4.34,4.57,4.57,0,0,0-.78-2.65,4.65,4.65,0,0,0-2.15-1.7,51.69,51.69,0,0,0-7.11-1.64,29.31,29.31,0,0,1-7.65-2.27,8.6,8.6,0,0,1-3.37-3.28,8.91,8.91,0,0,1-1.21-4.54,10.35,10.35,0,0,1,2.49-6.74,11,11,0,0,1,9-3.86,13.44,13.44,0,0,1,8.16,2.78l2.38-2.52H530l.94,12h-2.41q-1.59-5.12-4.3-7.37a10.09,10.09,0,0,0-6.68-2.25,8,8,0,0,0-5.38,1.68,5.2,5.2,0,0,0-2,4.09,4.3,4.3,0,0,0,1.81,3.53q1.77,1.44,6.93,2.27a52,52,0,0,1,7.8,1.7,9.47,9.47,0,0,1,4.58,3.33,9.13,9.13,0,0,1,1.62,5.49,9.7,9.7,0,0,1-3.52,7.56,13,13,0,0,1-8.93,3.1,14.93,14.93,0,0,1-9.31-3.32l-2.63,3h-1.91L506,431Z"/><path class="cls-1" d="M545.9,396.18h2.41V410h10.92v3.32H548.31v21.66a6.28,6.28,0,0,0,1.33,4.31,4.34,4.34,0,0,0,3.39,1.49,5.12,5.12,0,0,0,4.18-2.27q1.73-2.27,2-7.5h2.41q-.22,6.74-3.06,10a9.35,9.35,0,0,1-7.39,3.26,9,9,0,0,1-6.54-2.29,8,8,0,0,1-2.36-6V413.27h-5.87v-2.52a9.44,9.44,0,0,0,6.11-3.35Q545.64,403.39,545.9,396.18Z"/><path class="cls-1" d="M595.92,427.07H571.74q.18,7.71,2.88,10.88a10,10,0,0,0,7.89,3.57q7.06,0,11.35-8l2.34,1q-5.26,10.24-15.21,10.24a15.07,15.07,0,0,1-11.41-4.9A17.52,17.52,0,0,1,565,427.29q0-8.22,4.56-13.28a14.51,14.51,0,0,1,11.23-5.06,14.3,14.3,0,0,1,8.47,2.52,15.22,15.22,0,0,1,5.37,7.24A24.76,24.76,0,0,1,595.92,427.07Zm-24.18-2.56h14.63a2.46,2.46,0,0,0,2-.88,4.81,4.81,0,0,0,.72-3,9.78,9.78,0,0,0-2.47-6.74,7.56,7.56,0,0,0-5.82-2.78,7.83,7.83,0,0,0-6.36,3.35Q571.85,417.81,571.74,424.51Z"/><path class="cls-1" d="M601.76,410l9.66-.61a54.43,54.43,0,0,1,1,7.18A18.61,18.61,0,0,1,618,411a11.66,11.66,0,0,1,6-1.62,8.91,8.91,0,0,1,5.77,1.83,11.69,11.69,0,0,1,3.5,6,18.36,18.36,0,0,1,5.36-5.85,11.5,11.5,0,0,1,6.44-1.94q4.6,0,6.91,2.74a14.2,14.2,0,0,1,3,9.3v16.76a2.38,2.38,0,0,0,.76,2.05,4.62,4.62,0,0,0,3,.83h1.69v2.7h-17V441h1.69a4.81,4.81,0,0,0,3-.72,2.66,2.66,0,0,0,.86-2.17V421.35a8.44,8.44,0,0,0-1.83-5.81,6.15,6.15,0,0,0-4.82-2.06,7.29,7.29,0,0,0-4.1,1.21,8.1,8.1,0,0,0-2.88,3.45,13.11,13.11,0,0,0-1.55,5.45v14.54a2.77,2.77,0,0,0,.79,2.18,3.62,3.62,0,0,0,2.45.7h2.31v2.7H622.12V441h1.95a4.33,4.33,0,0,0,2.74-.72,2.26,2.26,0,0,0,.9-1.84V422.89q0-4.94-1.75-7.17a5.66,5.66,0,0,0-4.7-2.23,7.06,7.06,0,0,0-5.87,2.59,13.39,13.39,0,0,0-2.92,8.58v13.48a2.69,2.69,0,0,0,.68,2.13,4.92,4.92,0,0,0,3,.76h1.73v2.7h-17V441h2.56a3.14,3.14,0,0,0,2.22-.72,2.41,2.41,0,0,0,.77-1.84V416.33a3.63,3.63,0,0,0-.94-2.74q-.94-.9-3.75-1.15Z"/></svg>