<?xml version="1.0" encoding="utf-8"?>
<!-- Generator: Adobe Illustrator 21.1.0, SVG Export Plug-In . SVG Version: 6.00 Build 0)  -->
<svg version="1.1" id="レイヤー_1" xmlns="http://www.w3.org/2000/svg" xmlns:xlink="http://www.w3.org/1999/xlink" x="0px"
	 y="0px" viewBox="0 0 58.4 127.9" style="enable-background:new 0 0 58.4 127.9;" xml:space="preserve">
<style type="text/css">
	.st0{fill:#FFFFFF;}
</style>
<path class="st0" d="M29.2,24.2c6.7,0,12.1-5.4,12.1-12.1S35.9,0,29.2,0S17.1,5.4,17.1,12.1S22.5,24.2,29.2,24.2z"/>
<path class="st0" d="M58.1,94.7L45.5,65.2l4.2-21.1c0.4-8-5.6-14-11.5-14h-18c-5.9,0-11.9,6-11.5,14l4.2,21.1L0.3,94.7
	c-0.6,1.3-0.4,2.8,0.4,4s2.1,1.9,3.6,1.9h13.2l3.4,23.2c0,2.3,1.8,4.1,4.1,4.1c0.8,0,7.4,0,8.3,0c2.3,0,4.1-1.8,4.1-4.1l3.4-23.2H54
	c1.4,0,2.8-0.7,3.6-1.9C58.5,97.5,58.6,96,58.1,94.7z"/>
</svg>
